<svg xmlns="http://www.w3.org/2000/svg" version="1.1" xmlns:xlink="http://www.w3.org/1999/xlink" xmlns:svgjs="http://svgjs.com/svgjs" width="512" height="512" x="0" y="0" viewBox="0 0 492.051 492.051" style="enable-background:new 0 0 512 512" xml:space="preserve" class=""><g><path d="M256.92 109.46c11.503-.017 20.823-9.337 20.84-20.84-1.14-27.65-40.54-27.64-41.68 0 .017 11.503 9.337 20.824 20.84 20.84zm0-29.68a8.85 8.85 0 0 1 8.84 8.84c-.46 11.72-17.22 11.72-17.68 0a8.851 8.851 0 0 1 8.84-8.84zM132.32 109.46h67.27a6 6 0 0 0 6-6V73.78a6 6 0 0 0-6-6h-67.27a6 6 0 0 0-6 6v29.68a6 6 0 0 0 6 6zm6-29.68h55.27v17.68h-55.27zM245.24 247.75c-40.13-99.98-187.18-72.81-188.83 35.16 1.64 106.87 146.13 135.07 188 37.13a6 6 0 0 0 6.85-3.76 87.803 87.803 0 0 0 0-64.69 6.001 6.001 0 0 0-6.02-3.84zm-25.69 56.94a3.013 3.013 0 0 0-.52-.23 74.261 74.261 0 0 0 0-40.83c.43-.1.846-.251 1.24-.45l21.34-2.83a74.795 74.795 0 0 1 0 47.27zm-14.15-44.18a62.795 62.795 0 0 1 0 47 6 6 0 0 0 2.37 7.2c-32.48 54.09-115.43 31.66-116-31.7.61-64.31 85.68-86 116.92-30.12a6 6 0 0 0-3.29 7.57zm-51.34 108.08c-47.297-.055-85.625-38.383-85.68-85.68 1.33-93.16 127.22-118.5 164.54-33.56l-11.75 1.56c-34.53-70.85-140.51-47-141.44 32 .89 77.89 104.37 102.67 140.48 33.93l11.85 1.57c-13.958 30.534-44.427 50.136-78 50.18zM480 307.94c2.19-3.37 7.07-5.38 6.37-10a6 6 0 0 0-3.34-4.59l-6.42-3.09c1.22-5.23 1.75-12.12-2.6-17.72-2.9-3.74-7.11-5.54-10-6.56-9.1-3.16-17.82-3.47-26-.42-8.79-9.47-19.49-15-30.35-15.69-13.86-.95-20.92 8.65-18.32 20.48-2.47 1.19-6.84 2.08-8.48-.06-1.28-2.38-1.84-4.91-4.56-7.3s-7.72-4.47-16-.85a67.656 67.656 0 0 0-19.37 12.91c-8.2-5.15-19.88-5.2-26.61.55-4.06 3.36-5.75 7.39-8.32 11.23-1.52 2.23-3.36 3.46-4.19 3.31a10.936 10.936 0 0 1-2.18-1c-5.33-3.43-12.86-3.34-16.23 1.72a5.927 5.927 0 0 0-1 2.84 26.613 26.613 0 0 0 2.31 13.49h-8.52c-19.53.45-23.49 27-5.25 33.29l22.47 79.56c4.56 16.16 20.33 27.44 38.35 27.44h87.76c18 0 33.79-11.28 38.35-27.44l22.47-79.56c15.78-5.18 15.56-27.63-.34-32.54zm-35.83-31.77c6-1.56 11.91-.24 15.83 1.14 1.48.52 3.56 1.37 4.53 2.61 1.87 2.4.56 7.54-.79 11.74a6 6 0 0 0 3.11 7.24l3.61 1.79a47.115 47.115 0 0 0-4.28 6.57h-44.12c2.57-4.74 7.91-8.15 13.26-7.86a6 6 0 0 0 5.22-9.46l-5.58-7.9a17.607 17.607 0 0 1 9.21-5.87zm-79.06-3a9.17 9.17 0 0 1 3.34-.94c5.65 13.24 17.14 23.74 30.36 27a6 6 0 1 0 3-11.62 30.692 30.692 0 0 1-10.64-5.13 50.63 50.63 0 0 0 7.93-3.52 6 6 0 0 0 3-7.07c-.53-1.74-2.14-7-.67-8.78.75-.91 2.89-1.39 5.48-1.23 7.06.44 14.47 4.16 20.78 10.33-3.15 3.48-8 8.76-4.78 13.52l2.44 3.45a27.052 27.052 0 0 0-16.09 18h-43.39c-1.25-10.28-8.64-18-15.38-24.67a55.384 55.384 0 0 1 14.62-9.36zm-70.27 27.06c7.29 4.19 15.65 1.4 21.05-6.57 2-2.79 3.71-6.78 6-8.75 2.82-2.32 7.41-2 10.71-.6 4.47 1.87 8.38 5.65 12 9.37 3.79 3.89 7.93 8.71 9.06 13.55h-54.37a14.854 14.854 0 0 1-4.45-7.02zm-18.69 19h198.91c6.62.18 6.74 9.89 0 10.12H276.15c-6.63-.2-6.75-9.92 0-10.14zm170.14 97.59c-3.11 11-14.14 18.7-26.81 18.7h-87.76c-12.67 0-23.7-7.69-26.8-18.7l-21.31-75.47h184z" fill="#4caf50" data-original="#000000" class=""></path><path d="M431.13 383.69a7.299 7.299 0 0 0 8.93-5.2l4.93-18.7a7.32 7.32 0 0 0-5.21-8.93 7.31 7.31 0 0 0-8.92 5.21l-4.93 18.7a7.289 7.289 0 0 0 5.2 8.92zM401.99 383.69a7.31 7.31 0 0 0 8.93-5.2l4.92-18.7a7.31 7.31 0 0 0-5.2-8.93 7.32 7.32 0 0 0-8.93 5.21l-4.92 18.7a7.289 7.289 0 0 0 5.2 8.92zM372.85 383.69a7.3 7.3 0 0 0 8.92-5.198v-.002l4.93-18.7a7.31 7.31 0 0 0-5.2-8.93 7.32 7.32 0 0 0-8.93 5.21l-4.93 18.7a7.31 7.31 0 0 0 5.21 8.92zM343.7 383.69a7.31 7.31 0 0 0 8.93-5.2l4.93-18.7a7.32 7.32 0 0 0-5.21-8.93 7.31 7.31 0 0 0-8.92 5.21l-4.93 18.7a7.289 7.289 0 0 0 5.2 8.92zM314.56 383.69a7.31 7.31 0 0 0 8.93-5.2l4.92-18.7a7.31 7.31 0 0 0-5.2-8.93 7.32 7.32 0 0 0-8.93 5.21l-4.92 18.7a7.289 7.289 0 0 0 5.2 8.92zM411.98 395.8l-4.92 18.7a7.31 7.31 0 0 0 14.13 3.72l4.93-18.7c2.13-9.43-11.36-12.99-14.14-3.72zM382.83 395.8l-4.92 18.7a7.316 7.316 0 0 0 14.15 3.72l4.93-18.7c2.07-9.43-11.37-12.99-14.16-3.72zM353.69 395.8l-4.93 18.7a7.31 7.31 0 0 0 14.13 3.72l4.93-18.7c2.14-9.43-11.34-12.99-14.13-3.72zM324.55 395.8l-4.93 18.7a7.31 7.31 0 0 0 14.13 3.72l4.92-18.7c2.15-9.43-11.34-12.99-14.12-3.72zM83.61 444.82a7.7 7.7 0 0 0 7.7-7.7v-3.63h125.57v3.63a7.69 7.69 0 0 0 7.68 7.7h37.01a7.7 7.7 0 0 0 7.7-7.7v-3.63h13.59a6 6 0 1 0 0-12H18.65a6.65 6.65 0 0 1-6.65-6.65V133.56h284.18v133.27a6 6 0 1 0 12 0v-178c-.028-24.429-19.821-44.227-44.25-44.26H44.26C19.831 44.598.033 64.392 0 88.82v326c0 10.303 8.347 18.659 18.65 18.67h20.27v3.63a7.7 7.7 0 0 0 7.7 7.7zm-53.5-323.26a21.14 21.14 0 0 1 11.68-3.18h31.67a21.14 21.14 0 0 1 11.68 3.18zm266.07-32.74v32.74H115.25v-65h148.68c17.806.022 32.233 14.454 32.25 32.26zM44.26 56.56h59v65h-3.12c-3.32-8.87-13.85-15.18-26.67-15.18H41.79c-12.83 0-23.35 6.31-26.67 15.18H12V88.82c.017-17.809 14.45-32.243 32.26-32.26z" fill="#4caf50" data-original="#000000" class=""></path></g></svg>