<svg xmlns="http://www.w3.org/2000/svg" version="1.1" xmlns:xlink="http://www.w3.org/1999/xlink" xmlns:svgjs="http://svgjs.com/svgjs" width="512" height="512" x="0" y="0" viewBox="0 0 64 64" style="enable-background:new 0 0 512 512" xml:space="preserve" class=""><g><path d="M60 13h-1V3c0-1.103-.897-2-2-2h-8c-1.103 0-2 .897-2 2v10h-2.184c.112-.314.184-.648.184-1a2.98 2.98 0 0 0-.78-2A2.98 2.98 0 0 0 45 8V4c0-1.654-1.346-3-3-3H24c-1.654 0-3 1.346-3 3v4c0 .771.301 1.468.78 2a2.976 2.976 0 0 0-.78 2c0 .352.072.686.184 1H20c-1.654 0-3 1.346-3 3v9.051c-.332-.022-.662-.051-1-.051-6.525 0-12.348 4.299-14.3 10.492A1.99 1.99 0 0 0 1 37v6c0 .604.275 1.141.701 1.508C3.653 50.701 9.475 55 16 55c.338 0 .668-.029 1-.051V60c0 1.654 1.346 3 3 3h40c1.654 0 3-1.346 3-3V16c0-1.654-1.346-3-3-3zM49 3h8v10h-1.586l-3.707-3.707-1.414 1.414L52.586 13H49zM23 4c0-.551.448-1 1-1h18c.552 0 1 .449 1 1v4c0 .551-.448 1-1 1H24c-.552 0-1-.449-1-1zm0 8c0-.551.448-1 1-1h18a1.001 1.001 0 0 1 0 2H24c-.552 0-1-.449-1-1zm-3 3h40c.552 0 1 .449 1 1v5H19v-5c0-.551.448-1 1-1zM5.001 40.019 5.002 43H3v-6h2l.001 2.981L5 40l.001.019zM4.008 45H5c.392 0 .755-.117 1.063-.313C7.828 48.412 11.612 51 16 51c6.065 0 11-4.935 11-11s-4.935-11-11-11c-4.388 0-8.172 2.588-9.937 6.313A1.972 1.972 0 0 0 5 35h-.992c1.996-4.772 6.729-8 11.992-8 7.168 0 13 5.832 13 13s-5.832 13-13 13c-5.263 0-9.996-3.228-11.992-8zM16 31c4.963 0 9 4.037 9 9s-4.037 9-9 9-9-4.037-9-9 4.037-9 9-9zm29.974 24.712-.98-8.822-1.988.221.933 8.395-2.107 1.405c-.331.221-.832-.045-.832-.446V45h-2v9.387a7.22 7.22 0 0 0-4.872-.01l.729-9.477a3.946 3.946 0 0 1 1.144-2.486c.535-.533 1.465-.533 2 0l.049.049-1.442.618.787 1.838 5.849-2.506a5.064 5.064 0 0 1 2.01-.413 2.166 2.166 0 0 1 2.107 1.676l2.604 11.284a1.395 1.395 0 0 1-.92 1.637l-.969.322c-.713.243-1.548-.1-1.89-.785zm2.792-13.739a4.143 4.143 0 0 0-1.65-1.534A4.198 4.198 0 0 0 45.254 40c-.968 0-1.91.193-2.8.575l-2.425 1.039-.615-.614c-1.289-1.289-3.539-1.289-4.828 0a5.955 5.955 0 0 0-1.724 3.746l-.051.662A8.97 8.97 0 0 1 31 40c0-4.963 4.037-9 9-9s9 4.037 9 9c0 .667-.089 1.327-.234 1.973zM32.603 48.12l-.187 2.431a13.06 13.06 0 0 1-3.238-3.391c.391-.717.712-1.476.983-2.257a10.985 10.985 0 0 0 2.442 3.217zm17.134-3.04A10.992 10.992 0 0 0 51 40c0-6.065-4.935-11-11-11-4.306 0-8.031 2.493-9.836 6.105a14.858 14.858 0 0 0-.987-2.266C31.595 29.182 35.589 27 40 27c7.168 0 13 5.832 13 13 0 2.867-.932 5.577-2.631 7.819zM60 61H20a1 1 0 0 1-1-1v-5.302c3.665-.747 6.835-2.844 9-5.736a15.023 15.023 0 0 0 4.242 3.845l-.375 4.879 2.356-1.18a5.215 5.215 0 0 1 4.788.077A2.534 2.534 0 0 0 41.535 59c.502 0 .988-.147 1.406-.426l1.697-1.132A3.54 3.54 0 0 0 47.584 59c.386 0 .766-.062 1.127-.184l.967-.322a3.393 3.393 0 0 0 2.235-3.985l-.984-4.262C53.55 47.458 55 43.849 55 40c0-8.271-6.729-15-15-15-4.802 0-9.187 2.229-12.011 6.023-2.165-2.884-5.33-4.975-8.989-5.721V23h42v37a1 1 0 0 1-1 1z" fill="#f44336" data-original="#000000" class=""></path><path d="M28 5h13v2H28zM50.287 5.712l1.414-1.414 5 5-1.415 1.413zM23 17h2v2h-2zM27 17h2v2h-2zM31 17h2v2h-2zM39 17h6v2h-6zM47 17h8v2h-8z" fill="#f44336" data-original="#000000" class=""></path></g></svg>