<svg xmlns="http://www.w3.org/2000/svg" version="1.1" xmlns:xlink="http://www.w3.org/1999/xlink" xmlns:svgjs="http://svgjs.com/svgjs" width="512" height="512" x="0" y="0" viewBox="0 0 512 512" style="enable-background:new 0 0 512 512" xml:space="preserve" class=""><g><path fill-rule="evenodd" d="M340.75 379.87c0 4.42-3.58 8-8 8h-30.86c-4.42 0-8-3.58-8-8s3.58-8 8-8h30.86c4.42 0 8 3.58 8 8zM431.96 36.4v336.55c0 20.07-16.35 36.4-36.44 36.4H264.01c-12.82 56.92-41.32 65.48-62.46 71.83-7.33 2.2-13.68 4.11-17.37 7.71l-19.06 20.54a7.986 7.986 0 0 1-5.87 2.56c-1.95 0-3.9-.71-5.44-2.14a8 8 0 0 1-.42-11.31l19.18-20.66c.07-.08.14-.15.21-.22 6.52-6.51 15.09-9.08 24.16-11.81 20.43-6.14 43.59-13.09 53.42-69.95a7.98 7.98 0 0 1 1.92-3.98l66.04-73.73c5.67-6.35 8.59-16 2.33-23.21-5.68-6.54-16.03-7.28-22.6-1.6l-82.17 71.03a7.979 7.979 0 0 1-8.56 1.22 7.983 7.983 0 0 1-4.67-7.27v-89.85l-35.16 11.27c-8.39 2.69-14.31 8.85-16.67 17.32l-30.03 108.11c-2.12 7.63-5.98 13.95-11.81 19.31l-15.51 14.31a7.963 7.963 0 0 1-5.42 2.12c-2.16 0-4.3-.87-5.88-2.58-3-3.25-2.79-8.31.46-11.3l15.51-14.31c3.67-3.38 5.9-7.02 7.24-11.82l30.03-108.11c3.8-13.63 13.71-23.93 27.2-28.26l40.05-12.84V36.4c0-20.07 16.36-36.4 36.47-36.4h156.39c20.09 0 36.44 16.33 36.44 36.4zm-213.31 0v6.57h197.31V36.4c0-11.25-9.17-20.4-20.44-20.4h-156.4c-11.29 0-20.47 9.15-20.47 20.4zm92.33 313.99h104.98V58.97H218.65V340.9l68.94-59.6c13.35-11.53 33.6-10.08 45.14 3.22 10.77 12.41 9.75 30.65-2.49 44.36zm104.98 22.57v-6.57H296.65l-24.16 26.97h123.02c11.28 0 20.45-9.15 20.45-20.4zM261.94 190.73c4.42 0 8-3.58 8-8v-25.28h25.39c4.42 0 8-3.58 8-8s-3.58-8-8-8h-33.39c-4.42 0-8 3.58-8 8v33.28c0 4.41 3.58 8 8 8zm77.37-33.28h25.36v25.28c0 4.42 3.58 8 8 8s8-3.58 8-8v-33.28c0-4.42-3.58-8-8-8h-33.36c-4.42 0-8 3.58-8 8s3.58 8 8 8zm-43.98 94.46h-25.39V226.6c0-4.42-3.58-8-8-8s-8 3.58-8 8v33.31c0 4.42 3.58 8 8 8h33.39c4.42 0 8-3.58 8-8s-3.59-8-8-8zm85.34 8V226.6c0-4.42-3.58-8-8-8s-8 3.58-8 8v25.31h-25.36c-4.42 0-8 3.58-8 8s3.58 8 8 8h33.36c4.42 0 8-3.58 8-8zm-33.86-17.79h-58.99c-4.42 0-8-3.58-8-8v-21.45h-17.88c-4.42 0-8-3.58-8-8s3.58-8 8-8h17.88v-21.42c0-4.42 3.58-8 8-8h58.99c4.42 0 8 3.58 8 8v21.42h17.86c4.42 0 8 3.58 8 8s-3.58 8-8 8h-17.86v21.45c0 4.42-3.58 8-8 8zm-50.99-45.45h42.99v-13.42h-42.99zm42.99 29.45v-13.45h-42.99v13.45zM317.32 37.48c4.4 0 8.01-3.6 8.01-7.99 0-4.42-3.61-7.99-8.01-7.99-4.43 0-8.01 3.57-8.01 7.99 0 4.39 3.58 7.99 8.01 7.99z" clip-rule="evenodd" fill="#4caf50" data-original="#000000" class=""></path></g></svg>